<svg width="1324" height="1588" viewBox="0 0 1324 1588" fill="none" xmlns="http://www.w3.org/2000/svg">
<path fill-rule="evenodd" clip-rule="evenodd" d="M1423.22 1122.02C1501.28 986.819 1442.57 778.195 1418.94 683.144C1394.15 583.418 1427.12 455.071 1277.72 368.813C1090.15 260.518 729.761 224.944 711.597 409.52C699.162 535.881 706.697 600.523 813.498 735.861C896.116 840.555 870.209 990.218 1049.61 1093.8C1237.18 1202.09 1314.96 1309.54 1423.22 1122.02Z" fill="#62E6AC"/>
<path d="M1425.64 688.724C1427.19 694.936 1428.85 701.531 1430.6 708.477C1445.78 768.619 1467.6 855.068 1476.53 946.599C1486.49 1048.71 1480.4 1157.06 1431.22 1242.23C1397.09 1301.36 1365.39 1337.16 1333.38 1355.52C1301.41 1373.86 1269.07 1374.82 1233.56 1364.14C1198.01 1353.46 1159.32 1331.11 1114.67 1302.87C1102.53 1295.19 1089.96 1287.07 1076.88 1278.64C1041.9 1256.07 1003.38 1231.21 960.266 1206.32C847.14 1141.01 798.742 1061.2 765.583 981.184C757.291 961.175 749.953 941.153 742.791 921.335C741.922 918.929 741.055 916.526 740.189 914.127C733.926 896.764 727.727 879.579 721.07 862.732C705.915 824.379 688.374 787.744 662.249 754.651C594.837 669.257 558.786 606.215 541.529 544.625C524.273 483.036 525.797 422.851 533.627 343.129C539.327 285.089 571.928 244.36 621.375 218.022C670.844 191.674 737.166 179.739 810.223 179.351C956.336 178.574 1129.19 223.984 1247.52 292.3C1341.69 346.674 1378.38 414.27 1395.45 483.993C1403.99 518.873 1407.62 554.288 1411.07 588.878L1411.27 590.882C1414.65 624.759 1417.95 657.825 1425.64 688.724Z" stroke="#D2D2D2"/>
<path d="M1431.82 688.862C1433.71 696.424 1435.73 704.452 1437.86 712.909C1456.33 786.124 1482.88 891.37 1493.74 1002.81C1505.86 1127.13 1498.44 1259.06 1438.55 1362.78C1396.99 1434.77 1358.39 1478.37 1319.4 1500.74C1280.45 1523.09 1241.05 1524.27 1197.8 1511.26C1154.52 1498.25 1107.41 1471.05 1053.07 1436.67C1038.29 1427.32 1022.98 1417.44 1007.07 1407.17C964.482 1379.7 917.595 1349.44 865.125 1319.15C727.399 1239.63 668.481 1142.46 628.12 1045.04C618.027 1020.68 609.095 996.3 600.379 972.175C599.321 969.247 598.267 966.323 597.214 963.402C589.591 942.265 582.047 921.345 573.946 900.837C555.503 854.152 534.16 809.566 502.372 769.294C420.317 665.338 376.429 588.581 355.424 513.583C334.42 438.587 336.283 365.301 345.822 268.244C352.771 197.544 392.486 147.928 452.706 115.846C512.947 83.7528 593.701 69.2154 682.64 68.7353C860.518 67.7752 1070.94 123.043 1214.99 206.209C1329.65 272.411 1374.32 354.724 1395.09 439.628C1405.49 482.098 1409.9 525.219 1414.1 567.327L1414.35 569.76C1418.46 611.006 1422.47 651.253 1431.82 688.862Z" stroke="#D2D2D2"/>
</svg>
